<svg xmlns="http://www.w3.org/2000/svg" width="56.889" height="40.031" viewBox="0 0 56.889 40.031"><defs><style>.a{fill:#ec1672;}.b{fill:#e5efef;}.c{fill:#7bb9ff;}.d{fill:#9dcad1;}.e{fill:#032628;}.f{fill:none;}.g{fill:#d9dede;}.h{fill:#f9f9f9;}.i{fill:#664384;}</style></defs><g transform="translate(0 0)"><g transform="translate(0 0.152)"><rect class="a" width="4" height="22.666" transform="translate(31.556 7.848)"/><g transform="translate(0 28.782)"><path class="b" d="M144.548,600.864A3.582,3.582,0,0,1,146.4,597.9h-2.7a2.9,2.9,0,0,0-2.9,2.9v5.3a2.891,2.891,0,0,0,2.9,2.887h1.8a5.137,5.137,0,0,1-.96-1.551A55.323,55.323,0,0,1,144.548,600.864Z" transform="translate(-140.8 -597.9)"/></g><g transform="translate(3.645)"><path class="c" d="M238.861,239.841h-.875v-3.855h.453c.614,0,1.114-.968,1.114-2.166v-5.091c0-1.2-.5-2.166-1.114-2.166h-.453v-.576A2.889,2.889,0,0,0,235.1,223.1H195.035c-1.382.63-2.887,1.674-2.926,3.279-.077,2.98,0,9.008,0,9.008a15.169,15.169,0,0,0,1.336,5.775h2.519v.154h1.129v-.154h1.743a3.913,3.913,0,0,0,3.41-2.834,8.379,8.379,0,0,1,1.044-2.02c.73-1.037,2.864-1.651,4.462-1.651h8.793a2.889,2.889,0,0,1,2.887,2.887v11.442a2.884,2.884,0,0,1-2.887,2.887H190.22a3.594,3.594,0,0,0-1.851,2.964,54.443,54.443,0,0,0,0,6.566,5.139,5.139,0,0,0,.96,1.551H235.1a2.889,2.889,0,0,0,2.887-2.887V246.591h.875c.845,0,1.536-.968,1.536-2.166v-2.419C240.4,240.809,239.706,239.841,238.861,239.841Z" transform="translate(-188.267 -223.1)"/></g></g><g transform="translate(4.823 0.152)"><path class="d" d="M206.657,226.379c.044-1.6,1.771-2.657,3.357-3.279h-3.1a3.118,3.118,0,0,0-3.313,2.887v8.67l.617,3.648a3.836,3.836,0,0,0,3.806,2.857h.167a13.519,13.519,0,0,1-1.533-5.775S206.569,229.359,206.657,226.379Z" transform="translate(-203.6 -223.1)"/></g><g transform="translate(9.161 39.878)"><rect class="e" width="38.873" height="0.154"/></g><g transform="translate(10.06 2.011)"><g transform="translate(33.605 3.44)"><path class="f" d="M710.122,293.544h5.844a.722.722,0,1,0,0-1.444h-5.844a.722.722,0,1,0,0,1.444Z" transform="translate(-709.4 -292.1)"/></g><g transform="translate(5.844)"><path class="f" d="M371.629,247.3H348.622a.721.721,0,0,0-.722.722v1.743a.721.721,0,0,0,.722.722H368.68a5.686,5.686,0,0,0,3.648-1.6C373.134,248.014,372.827,247.3,371.629,247.3Z" transform="translate(-347.9 -247.3)"/></g><g transform="translate(33.605 0.883)"><path class="f" d="M710.122,260.244h5.844a.722.722,0,1,0,0-1.444h-5.844a.722.722,0,1,0,0,1.444Z" transform="translate(-709.4 -258.8)"/></g><g transform="translate(31.8 11.688)"><path class="f" d="M694.631,399.5h-7.288a1.442,1.442,0,0,0-1.444,1.444v9.215a1.442,1.442,0,0,0,1.444,1.444h7.288a1.442,1.442,0,0,0,1.444-1.444v-9.215A1.442,1.442,0,0,0,694.631,399.5Z" transform="translate(-685.9 -399.5)"/></g><g transform="translate(0 16.357)"><path class="g" d="M273.082,464.577h-.507c-.077-.207-.2-.346-.353-.346-.23,0-.422.315-.422.706s.192.714.422.714c.154,0,.277-.146.353-.346h.507v2.035h1.129v-.691H275.3c.077.207.2.346.353.346.23,0,.422-.315.422-.706s-.192-.707-.422-.707c-.154,0-.276.146-.353.346h-1.091V462.1h.691c.077.177.192.3.338.3.23,0,.422-.315.422-.706s-.184-.707-.422-.707c-.161,0-.3.161-.376.392h-.653V460.3h-1.129Z" transform="translate(-271.8 -460.3)"/></g></g><g transform="translate(43.665 2.886)"><path class="h" d="M710.122,258.7h5.844a.722.722,0,1,1,0,1.444h-5.844a.722.722,0,1,1,0-1.444Z" transform="translate(-709.4 -258.7)"/></g><g transform="translate(43.665 5.451)"><path class="h" d="M710.122,292.1h5.844a.722.722,0,1,1,0,1.444h-5.844a.722.722,0,1,1,0-1.444Z" transform="translate(-709.4 -292.1)"/></g><g transform="translate(15.904 2.018)"><path class="i" d="M372.32,248.989a5.686,5.686,0,0,1-3.648,1.6H348.622a.721.721,0,0,1-.722-.722v-1.743a.721.721,0,0,1,.722-.722h23.007C372.827,247.392,373.134,248.106,372.32,248.989Z" transform="translate(-347.9 -247.399)"/></g><g transform="translate(39.12 13.699)"><path class="i" d="M696.075,410.159a1.442,1.442,0,0,1-1.444,1.444h-7.287a1.442,1.442,0,0,1-1.444-1.444v-9.215a1.442,1.442,0,0,1,1.444-1.444h7.287a1.442,1.442,0,0,1,1.444,1.444Z" transform="translate(-685.9 -399.5)"/></g><g transform="translate(23.568 11.625)"><rect class="e" width="8.04" height="0.154"/></g><path class="i" d="M1,0H3A1,1,0,0,1,4,1V13.667a1,1,0,0,1-1,1H1a1,1,0,0,1-1-1V1A1,1,0,0,1,1,0Z" transform="translate(52.889 0)"/></g></svg>