<svg xmlns="http://www.w3.org/2000/svg" width="44.698" height="47.49" viewBox="0 0 44.698 47.49"><defs><style>.a{fill:#f9f9f9;}.b{fill:#7bb9ff;}.c{fill:#664384;}.d{fill:#ec1672;}.e{fill:#032628;}.f{fill:#fff;}</style></defs><g transform="translate(0 5.978)"><g transform="translate(0)"><path class="a" d="M471.058,306l-4.277.68a3.541,3.541,0,0,0-2.982,3.512l.134,33.585a3.547,3.547,0,0,0,1.37,2.784l3.41.664,1.279-35.758Z" transform="translate(-463.8 -306)"/></g><g transform="translate(1.338 0.664)"><path class="b" d="M506.04,359.04l-10.829-40.4-.423-.241-2.853.6a5.362,5.362,0,0,0-3.137,4.9l2.318,34.388a3.533,3.533,0,0,0,2.173.744Z" transform="translate(-488.799 -318.4)"/></g></g><g transform="translate(2.163)"><g transform="translate(5.428 3.627)"><g transform="translate(6.07 17.698)"><path class="b" d="M719,600.13l4.919,18.527h22.333a3.538,3.538,0,0,0,3.538-3.565l-.375-22.391C741.011,599.712,728.111,600.585,719,600.13Z" transform="translate(-719 -592.7)"/></g><path class="a" d="M638.847,265.151l-18.082-3.035a3.627,3.627,0,0,0-1.049.011L605.6,264.375l6.07,22.836c9.111.45,22.011-.423,30.416-7.43l-.187-11.15A3.54,3.54,0,0,0,638.847,265.151Z" transform="translate(-605.6 -262.083)"/></g><g transform="translate(19.87 5.276)"><path class="c" d="M890.875,293.714l3.56,8.854-2.96,4.743,3.8,2.179L881.663,334.9H875.4l10.979-42Z" transform="translate(-875.4 -292.9)"/></g><g transform="translate(18.864 13.322)"><ellipse class="a" cx="1.317" cy="1.317" rx="1.317" ry="1.317"/></g><g transform="translate(17.804 2.386)"><ellipse class="d" cx="2.371" cy="2.371" rx="2.371" ry="2.371"/></g><g transform="translate(0 5.276)"><path class="c" d="M513.091,292.9l-4.5.814-3.554,8.854,2.955,4.743-3.79,2.179L517.8,334.9h6.268Z" transform="translate(-504.2 -292.9)"/></g><g transform="translate(30.876 27.593)"><path class="e" d="M1088.879,729.7H1081v-.257h7.879a3.529,3.529,0,0,0,3.522-3.6l-.53-16.032.257-.011.53,16.038a3.784,3.784,0,0,1-3.779,3.859Z" transform="translate(-1081 -709.8)"/></g><g transform="translate(9.892)"><g transform="translate(10.107)"><path class="d" d="M886.209,194.456l-8.41,4.652,8.447,4.223a.994.994,0,0,0,1.44-.889v-7.119A.994.994,0,0,0,886.209,194.456Z" transform="translate(-877.8 -194.33)"/></g><g transform="translate(0 0.333)"><path class="f" d="M688.992,201.58l.182,7.248a.994.994,0,0,0,1.477.846l.337-.187V205a1.247,1.247,0,0,1,1.836-1.1l4.186,2.254.862-1.424-7.435-4.068A1,1,0,0,0,688.992,201.58Z" transform="translate(-688.992 -200.555)"/></g><g transform="translate(1.408 1.904)"><path class="d" d="M724.084,232.8l-8.784-2.9.583,7.36,8.2-4.464" transform="translate(-715.3 -229.9)"/></g></g><g transform="translate(26.109 24.53)"><rect class="e" width="25.646" height="0.257" transform="translate(0 22.694) rotate(-62.233)"/></g><g transform="translate(17.783 12.273)"><path class="c" d="M836.4,426.062a2.462,2.462,0,1,1,2.462,2.462A2.466,2.466,0,0,1,836.4,426.062Zm1.429,0a1.028,1.028,0,1,0,1.028-1.028A1.028,1.028,0,0,0,837.829,426.062Z" transform="translate(-836.4 -423.6)"/></g><g transform="translate(18.864 21.437)"><ellipse class="a" cx="1.317" cy="1.317" rx="1.317" ry="1.317"/></g><g transform="translate(17.783 20.388)"><path class="c" d="M836.4,577.662a2.462,2.462,0,1,1,2.462,2.462A2.466,2.466,0,0,1,836.4,577.662Zm1.429,0a1.028,1.028,0,1,0,1.028-1.028A1.028,1.028,0,0,0,837.829,577.662Z" transform="translate(-836.4 -575.2)"/></g></g><g transform="translate(33.012 5.223)"><path class="e" d="M1091.254,306.76l-.268-9.357a4.087,4.087,0,0,0-3.169-3.865l-7.318-1.386.048-.252,7.323,1.386a4.343,4.343,0,0,1,3.372,4.106l.268,9.357Z" transform="translate(-1080.5 -291.9)"/></g></svg>