<svg xmlns="http://www.w3.org/2000/svg" width="47.019" height="51.833" viewBox="0 0 47.019 51.833"><defs><style>.a{fill:#f9f9f9;}.b{fill:#7bb9ff;}.c{fill:#ec1672;}.d{fill:#664384;}.e{fill:#032628;}</style></defs><g transform="translate(0 0)"><g transform="translate(6.945 0.319)"><path class="a" d="M588.42,175.672v31.363a12.2,12.2,0,0,1-12.19,12.2h-.005l-2.615-7.844L571,219.226a12.192,12.192,0,0,1-12.185-11.771c-.005-.143-.011-.282-.011-.425V175.672l6.972-2.615,1.743-4.357h12.2l1.743,4.357,6.642,2.492Z" transform="translate(-558.8 -168.7)"/></g><g transform="translate(6.956 7.163)"><path class="b" d="M588.61,297.628v31.363a12.2,12.2,0,0,1-12.191,12.2h-.005l-2.614-7.844-2.615,7.838A12.192,12.192,0,0,1,559,329.411c11.058-4.9,22.069-14.651,29.286-31.911Z" transform="translate(-559 -297.5)"/></g><g transform="translate(15.145 0.117)"><path class="c" d="M725.3,194.4l-5.585,7.349L713.1,194.4Z" transform="translate(-713.1 -194.4)"/></g><g transform="translate(18.705 3.109)"><path class="a" d="M786.2,250.7l-3.05,4.358L780.1,250.7Z" transform="translate(-780.1 -250.7)"/></g><g transform="translate(13.87)"><path class="c" d="M689.1,195.787l1.355-3.587,6.473,7.472-3.768,3.47Z" transform="translate(-689.1 -192.2)"/></g><g transform="translate(21.756 0.175)"><path class="c" d="M844.791,198.736l-1.823-3.236-5.468,7.291,3.821,3.481Z" transform="translate(-837.5 -195.5)"/></g><g transform="translate(0 6.834)"><path class="b" d="M435.805,291.3l-4.219,2.205a1.6,1.6,0,0,0-.611.781l-2.689,8.667a2.145,2.145,0,0,0-.143.781l-.042,14.582a2.146,2.146,0,0,0,.143.781l2.556,14.491,7.147,1.987-2.009-16.107-.069-13.593Z" transform="translate(-428.1 -291.3)"/></g><g transform="translate(36.561 7.291)"><path class="b" d="M1116.105,299.9l4.7,2.242a1.744,1.744,0,0,1,1.047,1.408l4.708,38.16-6.1,1.743-4.357-20.905V299.9Z" transform="translate(-1116.1 -299.9)"/></g><g transform="translate(26.113 19.486)"><path class="b" d="M926.466,535.5l-3.48,1.743L919.5,535.5v-6.1h6.966Z" transform="translate(-919.5 -529.4)"/></g><g transform="translate(25.242 18.615)"><path class="d" d="M910.938,513h-6.967a.869.869,0,0,0-.871.871v6.1a.873.873,0,0,0,.484.781l3.486,1.743a.878.878,0,0,0,.781,0l3.486-1.743a.873.873,0,0,0,.484-.781v-6.1A.888.888,0,0,0,910.938,513Zm-.866,6.43-2.615,1.307-2.614-1.307v-4.687h5.229Z" transform="translate(-903.1 -513)"/></g><g transform="translate(21.091 12.249)"><path class="d" d="M825.871,393.2h0a.869.869,0,0,1,.872.872h0a.869.869,0,0,1-.872.872h0a.869.869,0,0,1-.872-.872h0A.876.876,0,0,1,825.871,393.2Z" transform="translate(-825 -393.2)"/></g><g transform="translate(21.091 20.958)"><path class="d" d="M825.871,557.1h0a.869.869,0,0,1,.872.872h0a.869.869,0,0,1-.872.872h0a.869.869,0,0,1-.872-.872h0A.879.879,0,0,1,825.871,557.1Z" transform="translate(-825 -557.1)"/></g><g transform="translate(21.091 29.673)"><path class="d" d="M825.871,721.1h0a.869.869,0,0,1,.872.871h0a.869.869,0,0,1-.872.871h0a.869.869,0,0,1-.872-.871h0A.875.875,0,0,1,825.871,721.1Z" transform="translate(-825 -721.1)"/></g><g transform="translate(21.091 38.383)"><path class="d" d="M825.871,885h0a.869.869,0,0,1,.872.872h0a.869.869,0,0,1-.872.871h0a.869.869,0,0,1-.872-.871h0A.876.876,0,0,1,825.871,885Z" transform="translate(-825 -885)"/></g><g transform="translate(32.182 4.697)"><path class="e" d="M1047.58,280.582c-.032-.218-2.949-21.873-3.156-23.456a2.526,2.526,0,0,0-1.5-2.025l-9.225-3.794.085-.207,9.225,3.794a2.736,2.736,0,0,1,1.637,2.2c.2,1.589,3.125,23.238,3.156,23.456Z" transform="translate(-1033.7 -251.1)"/></g><g transform="translate(24.365 42.842)"><path class="e" d="M886.648,977.891H886.6l.005-.223a14,14,0,0,0,4.963-1.02,12.541,12.541,0,0,0,7.312-7.748l.207.074a12.745,12.745,0,0,1-7.45,7.886A14.378,14.378,0,0,1,886.648,977.891Z" transform="translate(-886.6 -968.9)"/></g></g></svg>