<svg xmlns="http://www.w3.org/2000/svg" width="52.041" height="37.609" viewBox="0 0 52.041 37.609"><defs><style>.a{fill:#7bb9ff;}.b{fill:#664384;}.c{fill:#f9f9f9;}.d{fill:#fff;}.e{fill:#ec1672;}.f{fill:#032628;}</style></defs><g transform="translate(0 0)"><g transform="translate(8.827 29.341)"><path class="a" d="M243.8,974.3v6.857s3.891.207,9.726.511,30.4-.308,30.4-.308l1.329-2.5-.2-2.4-37.978-.94Z" transform="translate(-243.8 -974.3)"/></g><g transform="translate(0 27.488)"><path class="b" d="M35.759,938.679c-.312,0-7.66-.044-9.658-3.858a.883.883,0,0,1-.1-.405l.373-5.362c0-.936,0,1.191.689.531a3.774,3.774,0,0,1,2.7-1.021l46.756,1.678a.869.869,0,0,1,.839.871v3.878a3.7,3.7,0,0,1-3.692,3.692h-37.9ZM29.7,930.3a1.962,1.962,0,0,0-1.431.535,1.705,1.705,0,0,0-.531,1.224v2.124c1.4,2.245,6.229,2.748,8.016,2.752H73.667a1.953,1.953,0,0,0,1.949-1.949v-3.039Z" transform="translate(-26 -928.562)"/></g><g transform="translate(8.316 0)"><path class="c" d="M231.2,274.118s8.531-.478,12.555-4.5a81.958,81.958,0,0,0,7.574-9.009l.34-10.237,7.574-.069.207,14.74-7.574,8.531-6.825,4.093-11.4.819Z" transform="translate(-231.2 -250.3)"/></g><g transform="translate(11.343 0.101)"><path class="a" d="M309.527,284.208h35.315c.912-3.615-.065-7.7-1.22-10.8a26.27,26.27,0,0,1-1.5-12.069l.956-8.543-14.371.069v5.179a13.063,13.063,0,0,1-2.7,8.5,47.778,47.778,0,0,1-8.332,8.259c-1.868,1.264-7.469,4.231-9.69,4.644-1.589.3-.908-.474-2.091-.138C310.407,281.023,308.858,282.672,309.527,284.208Z" transform="translate(-305.9 -252.8)"/></g><g transform="translate(33.298 14.936)"><ellipse class="d" cx="6.276" cy="6.276" rx="6.276" ry="6.276"/></g><g transform="translate(36.012 17.649)"><path class="e" d="M928.6,703.362a3.562,3.562,0,1,1,3.562,3.562A3.566,3.566,0,0,1,928.6,703.362Zm2.073,0a1.49,1.49,0,1,0,1.49-1.49A1.49,1.49,0,0,0,930.673,703.362Z" transform="translate(-928.6 -699.8)"/></g><g transform="translate(24.927 13.732)"><path class="b" d="M644.37,592.821l-2.93-2.107a.871.871,0,0,1,1.017-1.414l2.93,2.107a.87.87,0,0,1-.511,1.576A.82.82,0,0,1,644.37,592.821Z" transform="translate(-641.078 -589.135)"/></g><g transform="translate(22.358 16.372)"><path class="b" d="M580.929,657.935l-2.89-2.079a.871.871,0,1,1,1.017-1.414l2.89,2.079a.87.87,0,0,1-.511,1.577A.821.821,0,0,1,580.929,657.935Z" transform="translate(-577.678 -654.278)"/></g><g transform="translate(19.48 18.795)"><path class="b" d="M510.193,717.925l-3.153-2.269a.871.871,0,0,1,1.017-1.415l3.153,2.27a.871.871,0,0,1-1.017,1.414Z" transform="translate(-506.678 -714.078)"/></g><g transform="translate(26.865 10.816)"><path class="b" d="M692.49,520.474a.848.848,0,0,1-.425-.114l-2.736-1.544a.871.871,0,1,1,.859-1.516l2.735,1.544a.869.869,0,0,1,.328,1.187.884.884,0,0,1-.762.442Z" transform="translate(-688.886 -517.186)"/></g><g transform="translate(27.904 7.608)"><path class="b" d="M714.55,438.7a.872.872,0,0,1,1.046-.648l3.388.8a.87.87,0,1,1-.4,1.694l-3.388-.8A.867.867,0,0,1,714.55,438.7Z" transform="translate(-714.527 -438.033)"/></g><g transform="translate(28.498 3.656)"><path class="b" d="M729.2,341.371a.87.87,0,0,1,.871-.871h2.841a.871.871,0,1,1,0,1.743h-2.841A.87.87,0,0,1,729.2,341.371Z" transform="translate(-729.2 -340.5)"/></g></g><g transform="translate(49.637 29.122)"><path class="b" d="M1252.522,972.924H1250.8V968.9h.851a.87.87,0,0,1,.871.871Z" transform="translate(-1250.8 -968.9)"/></g><g transform="translate(48.657 1.35)"><path class="f" d="M1230.008,308.84h-.195a24.49,24.49,0,0,0-1.491-6.034,22.638,22.638,0,0,1-.916-3.068,34.021,34.021,0,0,1-.774-5.986c.089-1.893,1.038-10.071,1.046-10.152l.19.02c-.008.081-.956,8.251-1.046,10.14a34.058,34.058,0,0,0,.77,5.933,22.98,22.98,0,0,0,.9,3.027A24.147,24.147,0,0,1,1230.008,308.84Z" transform="translate(-1226.625 -283.6)"/></g><g transform="translate(0.398 23.373)"><path class="e" d="M43.209,836.037A11.388,11.388,0,0,1,36.846,834a2.709,2.709,0,0,1,.207-4.385,21.629,21.629,0,0,1,6.12-2.557.889.889,0,0,1,.543.024,14.545,14.545,0,0,1,7.935,7.712.89.89,0,0,1-.065.843.881.881,0,0,1-.742.4l-7.635,0Z" transform="translate(-35.826 -827.029)"/></g></svg>