<svg xmlns="http://www.w3.org/2000/svg" width="42.35" height="41.5" viewBox="0 0 42.35 41.5"><defs><style>.a{fill:#664384;}.b{fill:#7bb9ff;}.c{fill:#fff;}.d{fill:#f9f9f9;}.e{fill:#ec1672;}.f{fill:#032628;}</style></defs><g transform="translate(0 0)"><g transform="translate(3.835)"><g transform="translate(0 2.307)"><path class="a" d="M251.7,206.231v36.619a6.851,6.851,0,0,0,4.064,1.328h0a6.876,6.876,0,0,0,6.875-6.875V209.733a6.849,6.849,0,0,0-.677-2.98A10.7,10.7,0,0,0,251.7,206.231Z" transform="translate(-251.7 -205.165)"/></g><g transform="translate(0.007)"><path class="a" d="M262.055,174.988a6.871,6.871,0,0,0-6.191-3.888h0a6.851,6.851,0,0,0-4.064,1.328v2.039A10.725,10.725,0,0,1,262.055,174.988Z" transform="translate(-251.8 -171.1)"/></g></g><g transform="translate(1.03 1.334)"><path class="a" d="M210.3,196.341V223.91a6.853,6.853,0,0,0,2.811,5.541V190.8A6.843,6.843,0,0,0,210.3,196.341Z" transform="translate(-210.3 -190.8)"/></g><g transform="translate(7.899 6.875)"><path class="b" d="M318.575,272.6v27.569a6.742,6.742,0,0,1-.508,2.581,6.946,6.946,0,0,1-6.367,4.288h27.8V272.6Z" transform="translate(-311.7 -272.6)"/></g><g transform="translate(0 27.92)"><ellipse class="c" cx="7.921" cy="6.79" rx="7.921" ry="6.79"/></g><g transform="translate(4.234 30.78)"><ellipse class="a" cx="3.665" cy="3.665" rx="3.665" ry="3.665"/></g><g transform="translate(13.778 10.194)"><path class="d" d="M399.5,322.569V345.85a6.742,6.742,0,0,1-.508,2.581c-.047.115-.1.223-.149.339-.034.068-.061.129-.095.2-.054.108-.108.21-.169.312a1.235,1.235,0,0,0-.074.129h18.607V321.6H399.5Z" transform="translate(-398.5 -321.6)"/></g><g transform="translate(35.705 6.875)"><path class="a" d="M722.2,272.6h6.645v2.215H722.2Z" transform="translate(-722.2 -272.6)"/><g transform="translate(0 5.372)"><path class="a" d="M722.2,351.9h6.645v2.215H722.2Z" transform="translate(-722.2 -351.9)"/></g><g transform="translate(0 10.743)"><path class="a" d="M722.2,431.2h6.645v2.215H722.2Z" transform="translate(-722.2 -431.2)"/></g><g transform="translate(0 16.115)"><path class="a" d="M722.2,510.5h6.645v2.215H722.2Z" transform="translate(-722.2 -510.5)"/></g><g transform="translate(0 21.486)"><path class="a" d="M722.2,589.8h6.645v2.215H722.2Z" transform="translate(-722.2 -589.8)"/></g><g transform="translate(0 26.858)"><path class="a" d="M722.2,669.1h6.645v2.215H722.2Z" transform="translate(-722.2 -669.1)"/></g><g transform="translate(0 32.229)"><path class="a" d="M722.2,748.4h6.645v2.215H722.2Z" transform="translate(-722.2 -748.4)"/></g></g><g transform="translate(20.18 10.194)"><path class="e" d="M493,349.406c0-1.985,1.991-1.985,1.991-3.976S493,343.445,493,341.454s1.991-1.985,1.991-3.969S493,335.5,493,333.508s1.991-1.985,1.991-3.969S493,327.554,493,325.569s1.991-1.985,1.991-3.969h5.764c0,1.985-1.991,1.985-1.991,3.969s1.991,1.985,1.991,3.969-1.991,1.985-1.991,3.969,1.991,1.985,1.991,3.976-1.991,1.985-1.991,3.969,1.991,1.985,1.991,3.976-1.991,1.985-1.991,3.976Z" transform="translate(-493 -321.6)"/></g><g transform="translate(14.632 41.265)"><rect class="f" width="20.247" height="0.135"/></g><g transform="translate(14.639 12.315)"><rect class="f" width="0.135" height="18.458"/></g></g></svg>