<svg xmlns="http://www.w3.org/2000/svg" width="46.442" height="43.02" viewBox="0 0 46.442 43.02"><defs><style>.a{fill:#ec1672;}.b{fill:#664384;}.c{fill:#2a777f;}.d{fill:#7bb9ff;}.e{fill:#f9f9f9;}</style></defs><g transform="translate(-215.091 -163.8)"><g transform="translate(215.091 163.8)"><g transform="translate(0 0)"><path class="a" d="M776.953,437.618l-1.87-2.5a1.56,1.56,0,0,0-1.248-.622h-3.118a1.559,1.559,0,0,0-1.248.622l-1.87,2.5,4.674,1.556Z" transform="translate(-742.203 -422.034)"/><path class="b" d="M878.648,167.7l-4.674,1.556L869.3,167.7l1.17-2.915a1.562,1.562,0,0,1,1.446-.981h4.126a1.559,1.559,0,0,1,1.446.981Z" transform="translate(-839.22 -163.8)"/><path class="c" d="M1094.652,319.457a.78.78,0,0,1-.778-.778V304.652a3.9,3.9,0,0,0-3.9-3.9.778.778,0,0,1,0-1.557,5.466,5.466,0,0,1,5.457,5.457v14.027A.777.777,0,0,1,1094.652,319.457Z" transform="translate(-1048.993 -292.965)"/><path class="d" d="M297.311,248.4H286.4s-22.624,0-26.5,17.964a2.209,2.209,0,0,1,.391-.037l17.536,1.556,17.144-1.556a3.92,3.92,0,0,1,2.735-3.725,1.564,1.564,0,0,0,1.16-1.487V249.956A1.563,1.563,0,0,0,297.311,248.4Zm-2.339,10.131a1.56,1.56,0,0,1-1.556,1.557H280.167a1.559,1.559,0,0,1-.981-2.768l4.757-3.9a1.584,1.584,0,0,1,.99-.35h8.478a1.56,1.56,0,0,1,1.556,1.556v3.9Z" transform="translate(-257.883 -244.504)"/><path class="b" d="M266.493,639.643a1.95,1.95,0,0,1-1.953,1.953H227.917a1.949,1.949,0,0,1-1.382-3.329,1.886,1.886,0,0,1,.981-.53h.009a2.218,2.218,0,0,1,.391-.037h36.628a1.939,1.939,0,0,1,1.948,1.943Z" transform="translate(-225.508 -615.877)"/><path class="b" d="M220.88,786.2a4.786,4.786,0,1,0,1.962,9.15,5.571,5.571,0,0,0,8.179,2.758,6.367,6.367,0,0,0,10.039,0,5.571,5.571,0,0,0,8.179-2.758,4.786,4.786,0,1,0,1.962-9.15Z" transform="translate(-216.091 -757.538)"/><g transform="translate(4.362 26.493)"><path class="e" d="M311.6,747.818a.779.779,0,0,1-.493-1.381l8.57-7.013a.783.783,0,0,1,1.087.115.773.773,0,0,1-.1,1.087l-8.57,7.018a.768.768,0,0,1-.493.175Z" transform="translate(-310.818 -739.248)"/><path class="e" d="M777.232,747.843a.767.767,0,0,1-.493-.175l-8.57-7.013a.777.777,0,0,1,.985-1.2l8.57,7.013a.783.783,0,0,1,.239.866.767.767,0,0,1-.732.511Z" transform="translate(-746.844 -739.273)"/><path class="e" d="M633.078,750.787a.78.78,0,0,1-.778-.778V739.878a.778.778,0,1,1,1.556,0v10.131A.777.777,0,0,1,633.078,750.787Z" transform="translate(-617.496 -739.1)"/><path class="e" d="M463.889,879.666a.78.78,0,0,1-.668-1.179l2.339-3.9a.781.781,0,1,1,1.34.8l-2.339,3.9a.8.8,0,0,1-.672.378Z" transform="translate(-456.098 -867.979)"/><path class="e" d="M753.941,880.1a.777.777,0,0,1-.668-.378l-2.339-3.9a.78.78,0,0,1,1.335-.806l2.339,3.9a.784.784,0,0,1-.668,1.183Z" transform="translate(-730.567 -868.414)"/></g></g></g></g></svg>